<svg xmlns="http://www.w3.org/2000/svg" viewBox="0 0 240 220.68"><defs><style>.cls-1{fill:#e63b2a;}.cls-2{fill:#fff;}</style></defs><g id="Layer_2" data-name="Layer 2"><g id="Layer_1-2" data-name="Layer 1"><rect class="cls-1" width="240" height="220.68" rx="19.2"/><path class="cls-2" d="M19.83,141.2V66.7h9v53l-1.46,6.86,1.35,7v7.68Zm16.53.59a11.8,11.8,0,0,1-5.34-1.2,10.63,10.63,0,0,1-3.89-3.23,8.8,8.8,0,0,1-1.73-4.54v-12a8.42,8.42,0,0,1,1.76-4.54,10.18,10.18,0,0,1,3.92-3.05,12.72,12.72,0,0,1,5.28-1.08,13.29,13.29,0,0,1,7.12,1.93,13.83,13.83,0,0,1,5,5.28,16.92,16.92,0,0,1,0,15.21,13.81,13.81,0,0,1-5,5.28A13.38,13.38,0,0,1,36.36,141.79Zm-1.64-8.15a6.16,6.16,0,0,0,5.54-3.22,7.47,7.47,0,0,0,0-6.92A6.14,6.14,0,0,0,38,121.13a6.23,6.23,0,0,0-3.25-.85,6.48,6.48,0,0,0-3.34.85,5.68,5.68,0,0,0-2.26,2.37,7.25,7.25,0,0,0-.79,3.4,7.47,7.47,0,0,0,.82,3.55,5.79,5.79,0,0,0,2.25,2.37A6.57,6.57,0,0,0,34.72,133.64Z"/><path class="cls-2" d="M66.6,141.79a12.83,12.83,0,0,1-7-2,14,14,0,0,1-4.9-5.28A15.76,15.76,0,0,1,52.94,127a16.11,16.11,0,0,1,1.79-7.65A13.5,13.5,0,0,1,59.6,114a13,13,0,0,1,7-1.9,11.83,11.83,0,0,1,5.19,1.11,10.2,10.2,0,0,1,3.78,3.08,8.29,8.29,0,0,1,1.64,4.48v12.31a8.45,8.45,0,0,1-1.61,4.49,9.83,9.83,0,0,1-3.75,3.07A11.87,11.87,0,0,1,66.6,141.79Zm1.88-8.15a5.93,5.93,0,0,0,4.6-1.88,6.9,6.9,0,0,0,1.73-4.86,7.56,7.56,0,0,0-.76-3.43,5.53,5.53,0,0,0-2.23-2.34,6.51,6.51,0,0,0-3.34-.85,6.27,6.27,0,0,0-3.26.85,6.12,6.12,0,0,0-2.28,2.37,7.47,7.47,0,0,0,0,6.92,6.19,6.19,0,0,0,2.28,2.37A6.27,6.27,0,0,0,68.48,133.64Zm6,7.56v-7.68l1.34-7-1.34-6.86v-7h8.85V141.2Z"/><path class="cls-2" d="M89.58,141.2V112.71h9V141.2Zm18.87,0V125a4.78,4.78,0,0,0-1.4-3.55,4.83,4.83,0,0,0-3.52-1.38,5.11,5.11,0,0,0-2.52.62,4.57,4.57,0,0,0-1.76,1.73A5,5,0,0,0,98.6,125l-3.45-1.7a11.26,11.26,0,0,1,1.49-5.87,10.24,10.24,0,0,1,4.1-3.89,12.44,12.44,0,0,1,5.9-1.38,10.58,10.58,0,0,1,9.43,5.42,10.82,10.82,0,0,1,1.41,5.42V141.2Z"/><path class="cls-2" d="M134.77,140.32a13.07,13.07,0,0,1-7-1.87,13.39,13.39,0,0,1-4.8-5.1A15.53,15.53,0,0,1,123,119a13.13,13.13,0,0,1,11.78-6.86,12.32,12.32,0,0,1,5.25,1.08,9.7,9.7,0,0,1,3.75,3.05,8.58,8.58,0,0,1,1.61,4.54v10.85a8.5,8.5,0,0,1-1.61,4.48,9.86,9.86,0,0,1-3.75,3.08A12,12,0,0,1,134.77,140.32Zm.41,13.66a19.67,19.67,0,0,1-8.18-1.61,13.42,13.42,0,0,1-5.59-4.55l5.56-5.5a10.69,10.69,0,0,0,3.43,2.75,10.14,10.14,0,0,0,4.49.94,7.79,7.79,0,0,0,5.24-1.64,5.87,5.87,0,0,0,1.91-4.69v-7.21l1.52-6.21L142.21,120v-7.33h8.85v26.73a14.18,14.18,0,0,1-2.05,7.68,13.68,13.68,0,0,1-5.65,5.07A18.21,18.21,0,0,1,135.18,154Zm1.29-21.63a6.2,6.2,0,0,0,3.25-.82,5.57,5.57,0,0,0,2.11-2.2,6.68,6.68,0,0,0,.74-3.19,6.48,6.48,0,0,0-.74-3,5.58,5.58,0,0,0-2.08-2.23,6.14,6.14,0,0,0-3.22-.82,6.38,6.38,0,0,0-3.23.82,5.65,5.65,0,0,0-2.16,2.23,6.4,6.4,0,0,0-.77,3.11,6.22,6.22,0,0,0,.8,3.07,5.75,5.75,0,0,0,5.3,3.08Z"/><path class="cls-2" d="M169,140.32a13,13,0,0,1-7-1.87,13.34,13.34,0,0,1-4.81-5.1,15.53,15.53,0,0,1,0-14.36A13.16,13.16,0,0,1,169,112.13a12.32,12.32,0,0,1,5.25,1.08,9.7,9.7,0,0,1,3.75,3.05,8.5,8.5,0,0,1,1.61,4.54v10.85a8.42,8.42,0,0,1-1.61,4.48,9.86,9.86,0,0,1-3.75,3.08A12,12,0,0,1,169,140.32Zm.41,13.66a19.67,19.67,0,0,1-8.18-1.61,13.42,13.42,0,0,1-5.59-4.55l5.56-5.5a10.69,10.69,0,0,0,3.43,2.75,10.14,10.14,0,0,0,4.49.94,7.78,7.78,0,0,0,5.24-1.64,5.87,5.87,0,0,0,1.91-4.69v-7.21l1.52-6.21L176.44,120v-7.33h8.86v26.73a14.18,14.18,0,0,1-2.06,7.68,13.62,13.62,0,0,1-5.65,5.07A18.21,18.21,0,0,1,169.41,154Zm1.29-21.63a6.18,6.18,0,0,0,3.25-.82,5.57,5.57,0,0,0,2.11-2.2,6.68,6.68,0,0,0,.74-3.19,6.48,6.48,0,0,0-.74-3,5.58,5.58,0,0,0-2.08-2.23,6.14,6.14,0,0,0-3.22-.82,6.32,6.32,0,0,0-3.22.82,5.6,5.6,0,0,0-2.17,2.23,6.4,6.4,0,0,0-.77,3.11,6.22,6.22,0,0,0,.8,3.07,5.78,5.78,0,0,0,5.3,3.08Z"/><path class="cls-2" d="M203.47,141.79a12.87,12.87,0,0,1-7-2,14,14,0,0,1-4.89-5.28,15.65,15.65,0,0,1-1.79-7.59,16,16,0,0,1,1.79-7.65,13.48,13.48,0,0,1,4.86-5.28,13,13,0,0,1,7-1.9,11.82,11.82,0,0,1,5.18,1.11,10,10,0,0,1,3.78,3.08,8.3,8.3,0,0,1,1.65,4.48v12.31a8.46,8.46,0,0,1-1.62,4.49,9.69,9.69,0,0,1-3.75,3.07A11.82,11.82,0,0,1,203.47,141.79Zm1.87-8.15a5.91,5.91,0,0,0,4.6-1.88,6.85,6.85,0,0,0,1.73-4.86,7.43,7.43,0,0,0-.76-3.43,5.53,5.53,0,0,0-2.23-2.34,6.48,6.48,0,0,0-3.34-.85,6.23,6.23,0,0,0-3.25.85,6.14,6.14,0,0,0-2.29,2.37,7.47,7.47,0,0,0,0,6.92,6.16,6.16,0,0,0,5.54,3.22Zm6,7.56v-7.68l1.35-7-1.35-6.86v-7h8.85V141.2Z"/><polygon class="cls-2" points="40.63 107.32 30.72 92.55 40.57 78.83 50.59 78.83 38.63 94.31 38.98 90.5 51.24 107.32 40.63 107.32"/><rect class="cls-2" x="53.35" y="78.84" width="9.03" height="28.49"/><polygon class="cls-2" points="88.1 78.83 81.66 78.83 81.66 66.7 72.63 66.7 72.63 78.83 66.24 78.83 66.24 86.51 72.63 86.51 72.63 107.32 81.66 107.32 81.66 86.51 88.1 86.51 88.1 78.83"/><path class="cls-2" d="M103.87,107.91a12.87,12.87,0,0,1-7-2A14,14,0,0,1,92,100.67a15.76,15.76,0,0,1-1.79-7.59A16.11,16.11,0,0,1,92,85.43a13.43,13.43,0,0,1,4.87-5.28,13,13,0,0,1,7-1.9,11.89,11.89,0,0,1,5.19,1.11,10.2,10.2,0,0,1,3.78,3.08,8.37,8.37,0,0,1,1.64,4.49v12.3a8.54,8.54,0,0,1-1.61,4.49,9.83,9.83,0,0,1-3.75,3.07A11.9,11.9,0,0,1,103.87,107.91Zm1.88-8.15a6,6,0,0,0,4.6-1.87A6.92,6.92,0,0,0,112.08,93a7.44,7.44,0,0,0-.77-3.43,5.51,5.51,0,0,0-2.22-2.34,6.51,6.51,0,0,0-3.34-.85,6.24,6.24,0,0,0-3.26.85,6.12,6.12,0,0,0-2.28,2.37,7.47,7.47,0,0,0,0,6.92,6.12,6.12,0,0,0,2.28,2.37A6.24,6.24,0,0,0,105.75,99.76Zm6,7.56V99.64l1.35-7-1.35-6.86v-7h8.86v28.48Z"/><rect class="cls-2" x="53.05" y="66.7" width="9.46" height="9.46"/></g></g></svg>